<?xml version="1.0" standalone="no"?>
<!DOCTYPE svg PUBLIC "-//W3C//DTD SVG 20010904//EN"
 "http://www.w3.org/TR/2001/REC-SVG-20010904/DTD/svg10.dtd">
<svg version="1.0" xmlns="http://www.w3.org/2000/svg"
 width="312.000000pt" height="312.000000pt" viewBox="0 0 312.000000 312.000000"
 preserveAspectRatio="xMidYMid meet">
<metadata>
Created by potrace 1.14, written by Peter Selinger 2001-2017
</metadata>
<g transform="translate(0.000000,312.000000) scale(0.100000,-0.100000)"
fill="#000000" stroke="none">
<path d="M1420 3004 c-14 -2 -63 -11 -110 -20 -172 -31 -392 -120 -530 -214
-60 -41 -186 -154 -253 -225 -142 -155 -269 -384 -311 -562 -7 -34 -16 -65
-19 -70 -3 -4 -12 -70 -22 -146 -14 -116 -14 -156 -5 -253 19 -194 47 -310
103 -439 36 -80 111 -223 126 -238 5 -5 24 6 42 23 55 51 125 86 220 111 49
12 89 27 89 32 0 6 -15 33 -34 61 -47 71 -100 187 -127 281 -21 71 -24 100
-24 265 0 165 3 194 23 265 93 317 302 550 601 672 476 193 1041 -16 1269
-469 82 -164 112 -290 112 -471 0 -206 -68 -423 -181 -574 -44 -59 -49 -78
-18 -70 59 16 219 -39 299 -103 21 -16 42 -30 47 -30 10 0 26 25 79 125 124
235 173 454 161 725 -7 154 -23 238 -72 382 -71 207 -165 357 -324 521 -207
212 -434 338 -721 398 -91 20 -359 34 -420 23z m49 -180 c25 -32 26 -44 6 -70
-15 -18 -15 -18 -9 9 5 21 1 37 -15 58 -27 36 -10 39 18 3z m271 11 c0 -8 -4
-15 -10 -15 -5 0 -7 7 -4 15 4 8 8 15 10 15 2 0 4 -7 4 -15z m-338 -56 c1 -34
0 -63 -4 -65 -11 -7 -16 7 -23 69 -6 48 -5 57 8 57 12 0 16 -14 19 -61z m389
37 c-5 -6 -12 -32 -16 -58 -5 -32 -12 -48 -22 -48 -10 0 -12 6 -7 23 12 39 22
87 17 87 -2 0 -2 4 2 10 3 5 12 7 21 3 9 -3 11 -9 5 -17z m39 4 c0 -5 -4 -10
-10 -10 -5 0 -10 5 -10 10 0 6 5 10 10 10 6 0 10 -4 10 -10z m-590 -20 c0 -5
-2 -10 -4 -10 -3 0 -8 5 -11 10 -3 6 -1 10 4 10 6 0 11 -4 11 -10z m-44 -23
c1 -7 9 -33 17 -59 12 -37 12 -48 3 -48 -14 0 -48 109 -39 123 6 10 16 2 19
-16z m758 -22 c-10 -15 -15 -38 -12 -60 5 -40 5 -40 -16 -19 -22 21 -20 60 4
84 28 28 44 25 24 -5z m86 -42 c0 -22 -37 -70 -47 -60 -2 3 3 17 12 31 12 18
16 37 11 59 -5 30 -5 31 9 13 8 -11 15 -30 15 -43z m-790 37 c0 -5 -4 -10 -10
-10 -5 0 -10 5 -10 10 0 6 5 10 10 10 6 0 10 -4 10 -10z m-210 -77 c14 -27 26
-51 28 -55 2 -5 -3 -8 -12 -8 -9 0 -16 6 -16 13 0 7 -11 29 -25 48 -22 33 -24
49 -5 49 3 0 17 -21 30 -47z m240 27 c0 -5 -4 -10 -10 -10 -5 0 -10 5 -10 10
0 6 5 10 10 10 6 0 10 -4 10 -10z m-300 -4 c0 -3 -4 -8 -10 -11 -5 -3 -10 -1
-10 4 0 6 5 11 10 11 6 0 10 -2 10 -4z m1297 -97 c-3 -12 -1 -32 5 -45 10 -21
8 -28 -10 -46 -12 -12 -25 -19 -29 -14 -4 4 -1 11 6 15 10 6 12 19 7 46 -5 23
-3 42 5 51 16 20 22 17 16 -7z m-1383 -16 c25 -16 46 -34 46 -40 0 -7 -2 -13
-5 -13 -10 0 -50 25 -61 39 -6 8 -16 11 -22 7 -7 -4 -12 -5 -12 -2 0 2 -3 11
-6 20 -9 23 9 20 60 -11z m-31 -49 c-3 -9 0 -20 7 -24 7 -4 9 -13 6 -19 -13
-20 -22 -11 -24 24 -2 19 2 35 7 35 6 0 8 -7 4 -16z m1361 -10 c3 -8 2 -12 -4
-9 -6 3 -10 10 -10 16 0 14 7 11 14 -7z m-1504 -35 c0 -5 -3 -8 -7 -8 -21 3
-33 -3 -33 -16 0 -23 31 -31 42 -11 5 9 13 14 19 11 14 -9 11 -25 -6 -25 -19
0 -20 -24 -1 -39 11 -9 18 -6 35 15 13 16 21 21 21 12 0 -8 -11 -25 -24 -37
l-24 -22 -45 43 -46 43 26 27 c24 26 43 29 43 7z m1745 -25 c32 -35 31 -49 -4
-85 -31 -30 -46 -36 -56 -19 -3 6 -1 10 5 10 16 0 60 47 60 64 0 8 -7 22 -16
30 -35 36 -106 -41 -74 -79 11 -13 10 -14 -3 -9 -35 13 -28 81 10 103 29 17
52 13 78 -15z m-1865 -144 c7 -13 21 -20 41 -20 42 0 33 -23 -12 -30 -33 -5
-33 -6 -12 -20 11 -7 19 -19 16 -26 -3 -8 -22 0 -58 24 -30 21 -54 40 -55 45
0 13 23 8 42 -10 14 -12 21 -14 30 -5 13 13 -6 42 -29 42 -8 0 -11 5 -8 10 10
17 34 11 45 -10z m2000 -39 c0 -5 -16 -32 -35 -61 -28 -42 -36 -49 -42 -34 -4
10 -2 19 5 22 7 2 12 9 12 17 0 7 7 18 15 25 8 7 13 16 10 20 -3 5 1 11 7 13
20 8 28 8 28 -2z m-60 -16 c0 -9 -6 -12 -15 -9 -8 4 -21 1 -29 -5 -7 -6 -16
-8 -19 -4 -14 14 -6 22 26 26 17 2 33 5 35 5 1 1 2 -5 2 -13z m-2075 -105 c3
-5 -1 -10 -10 -10 -9 0 -13 5 -10 10 3 6 8 10 10 10 2 0 7 -4 10 -10z m92 -62
c-3 -7 -5 -2 -5 12 0 14 2 19 5 13 2 -7 2 -19 0 -25z m2143 12 c0 -4 -11 -11
-25 -14 -14 -4 -25 -11 -25 -17 0 -17 29 -22 46 -8 14 12 16 11 13 -6 -3 -13
-14 -21 -33 -23 -16 -2 -37 -13 -47 -25 -23 -28 -25 -5 -3 29 20 30 13 40 -16
24 -18 -10 -24 -9 -31 1 -6 10 -1 16 19 20 15 3 40 13 57 21 29 16 45 15 45
-2z m-2238 -37 c10 -9 32 -16 48 -15 17 0 28 -4 25 -9 -16 -25 -105 2 -105 33
0 13 12 10 32 -9z m-50 -490 c22 -20 23 -51 1 -75 -32 -35 -85 -12 -85 37 0
48 48 70 84 38z m2370 0 c22 -20 23 -56 2 -77 -48 -48 -113 25 -67 76 20 22
41 23 65 1z"/>
<path d="M1402 2534 c-325 -59 -593 -276 -709 -574 -52 -133 -58 -167 -58
-350 0 -194 11 -246 80 -397 29 -63 111 -193 122 -193 2 0 43 9 91 19 48 11
141 27 207 36 66 9 123 20 127 23 4 4 10 19 13 34 l7 27 -53 -20 c-63 -24
-178 -36 -204 -21 -16 9 -12 13 33 36 28 14 67 39 85 56 47 41 81 121 74 177
-5 46 -48 113 -72 113 -8 0 -36 -15 -62 -34 -49 -35 -161 -86 -188 -86 -24 0
-18 -47 20 -140 30 -75 33 -86 19 -96 -22 -17 -55 -5 -123 48 -84 66 -126 133
-148 235 -15 72 -15 91 -4 145 17 82 46 150 93 218 21 31 38 61 38 68 0 20 40
94 65 122 14 15 25 44 29 74 14 109 108 206 281 291 156 76 395 140 395 106 0
-6 -4 -11 -10 -11 -5 0 -10 -4 -10 -10 0 -6 41 -10 103 -10 111 0 180 -15 262
-54 65 -32 212 -143 275 -207 58 -59 117 -169 141 -263 23 -87 23 -100 4 -92
-20 7 -20 5 20 -66 64 -118 79 -184 80 -354 l0 -151 17 46 c78 204 75 475 -6
680 -100 252 -323 460 -581 545 -137 44 -313 56 -453 30z"/>
<path d="M1390 2404 c-186 -55 -328 -132 -408 -219 -53 -58 -78 -118 -68 -160
4 -15 -2 -29 -20 -46 -35 -32 -74 -94 -74 -117 0 -11 -8 -30 -18 -43 -162
-213 -162 -443 1 -585 52 -45 107 -79 107 -66 0 11 -25 75 -42 110 -7 12 -12
44 -12 69 l-1 47 60 21 c52 18 104 45 200 105 18 11 28 12 48 3 30 -14 76 -88
83 -135 9 -54 -31 -144 -88 -200 -37 -36 -45 -48 -30 -48 36 0 127 32 159 56
17 13 34 24 36 24 7 0 -9 -74 -21 -97 -17 -30 -15 -35 10 -31 14 2 26 15 35
43 18 50 30 205 16 205 -6 0 -23 -20 -39 -45 -32 -51 -48 -59 -37 -17 17 59 7
146 -22 208 -16 32 -29 63 -29 68 -1 5 29 19 67 32 37 12 79 31 95 42 15 10
39 22 53 25 52 13 48 54 -9 82 -30 15 -64 19 -176 20 -106 2 -140 5 -147 16
-12 19 -38 107 -41 144 l-3 30 79 5 c54 3 84 1 95 -7 18 -14 45 -17 37 -4 -3
4 12 3 34 -3 34 -9 51 -6 117 17 43 15 68 25 56 23 -29 -5 -29 -2 4 41 15 20
47 44 70 54 77 33 56 44 -80 43 -157 0 -147 2 -200 -39 -46 -35 -63 -44 -52
-25 12 20 -8 9 -64 -35 -70 -55 -94 -57 -117 -10 -15 32 -20 35 -60 35 -43 0
-44 1 -38 28 16 67 61 116 163 181 52 34 212 104 219 96 2 -2 -1 -12 -7 -23
-10 -18 -6 -18 82 6 135 36 274 35 381 -3 121 -42 258 -129 323 -205 63 -74
143 -213 131 -226 -3 -2 -33 6 -67 17 -34 12 -65 19 -68 16 -3 -4 26 -41 65
-83 114 -124 167 -246 179 -412 l6 -86 -94 87 c-119 110 -340 270 -354 255 -2
-2 25 -25 61 -52 170 -126 286 -340 271 -501 -3 -33 -9 -68 -12 -78 -8 -19
-25 -23 -25 -6 0 34 -74 156 -160 263 -124 155 -138 166 -101 85 36 -81 61
-193 61 -275 0 -60 11 -87 25 -63 4 6 8 51 8 100 1 49 5 89 9 89 15 0 78 -96
100 -154 16 -41 32 -65 53 -77 40 -25 42 -25 60 19 24 55 22 193 -4 277 -12
37 -21 72 -21 77 0 16 72 -51 112 -105 49 -65 52 -55 45 126 -6 181 -32 261
-124 388 -40 56 -41 61 -7 49 39 -15 44 -4 25 53 -61 175 -224 342 -429 440
-95 46 -200 62 -313 47 -107 -13 -108 -13 -81 9 22 19 28 31 15 30 -5 0 -46
-11 -93 -25z m75 -324 c10 -16 -24 -70 -58 -90 -41 -25 -68 -25 -101 1 -29 23
-34 44 -10 53 26 10 34 7 34 -13 0 -24 36 -37 55 -21 8 7 15 25 15 40 0 19 6
30 18 33 30 8 41 7 47 -3z m-85 -34 c0 -3 -4 -8 -10 -11 -5 -3 -10 -1 -10 4 0
6 5 11 10 11 6 0 10 -2 10 -4z m-362 -59 c6 -7 25 -62 41 -122 19 -68 38 -116
50 -126 17 -14 39 -15 139 -11 73 3 122 1 125 -5 8 -13 -175 -65 -224 -65 -63
0 -128 41 -193 121 -41 50 -67 74 -87 78 -34 6 -33 6 -15 42 15 28 72 72 116
90 34 13 36 13 48 -2z m-68 -259 c49 -48 77 -67 113 -77 26 -8 47 -17 47 -21
0 -3 -58 -41 -128 -82 -70 -42 -134 -83 -140 -91 -25 -29 -26 -84 -3 -152 13
-36 21 -70 19 -75 -6 -19 -100 83 -124 134 -36 78 -34 199 5 295 27 66 71 136
95 153 14 10 39 -8 116 -84z m395 -69 c-118 -38 -171 -63 -258 -121 -90 -61
-180 -108 -207 -108 -25 0 5 21 155 108 154 89 170 96 265 122 87 24 120 24
45 -1z"/>
<path d="M964 1839 c-5 -8 7 -25 32 -46 59 -49 72 -42 31 18 -24 36 -50 48
-63 28z"/>
<path d="M1554 1505 c38 -93 48 -262 22 -349 -16 -54 -11 -60 46 -54 32 3 33
5 36 51 6 91 -57 328 -96 359 -14 11 -15 10 -8 -7z"/>
<path d="M2295 1294 c11 -39 12 -225 1 -246 -4 -10 -4 -18 0 -18 11 0 94 130
94 147 0 14 -77 130 -93 140 -6 4 -7 -5 -2 -23z"/>
<path d="M1444 1253 c-17 -49 -46 -109 -60 -125 -25 -26 -14 -40 19 -23 15 7
27 10 27 4 0 -5 9 -9 20 -9 18 0 20 7 20 79 0 76 -13 113 -26 74z"/>
<path d="M1797 1143 c-5 -63 6 -89 27 -60 18 23 21 22 45 -18 20 -35 59 -51
47 -19 -10 25 -74 119 -95 138 -18 16 -19 15 -24 -41z"/>
<path d="M2070 1122 c0 -62 7 -72 51 -72 24 0 24 -1 -6 64 -35 77 -45 78 -45
8z"/>
<path d="M1361 1033 c-83 -3 -94 -6 -98 -24 -5 -17 -7 -18 -17 -3 -11 14 -23
14 -115 3 -76 -10 -106 -18 -114 -30 -8 -13 -14 -15 -28 -6 -19 12 -105 -4
-239 -43 -36 -10 -90 -26 -121 -34 -159 -44 -246 -184 -193 -312 21 -52 40
-72 94 -99 129 -65 292 -27 367 87 30 44 30 44 73 -21 l15 -22 88 15 c49 9 93
18 97 21 5 3 53 8 107 11 102 5 123 14 123 56 0 28 26 32 57 10 95 -66 280
-71 365 -10 15 11 22 8 50 -19 62 -58 92 -68 213 -68 110 -1 110 -1 165 -37
92 -62 199 -81 272 -49 61 26 88 68 88 138 0 49 2 53 45 89 25 20 45 41 45 47
0 21 -96 103 -155 131 -68 34 -176 46 -224 26 -26 -10 -31 -9 -57 16 -16 15
-56 40 -89 55 -70 34 -170 40 -232 14 -36 -15 -39 -15 -99 15 -78 40 -185 58
-251 42 -30 -6 -52 -7 -57 -1 -6 5 -26 8 -45 7 -20 -1 -78 -4 -130 -5z m119
-33 c0 -6 -22 -79 -49 -163 -26 -83 -52 -168 -57 -187 -9 -30 -15 -36 -49 -42
-22 -4 -57 -7 -77 -7 -34 -1 -37 1 -54 47 -26 70 -32 71 -40 3 -6 -56 -9 -62
-33 -67 -14 -3 -46 -10 -71 -15 -53 -12 -43 -21 -143 135 -37 58 -70 106 -75
106 -4 0 -20 -23 -35 -50 -16 -28 -30 -50 -31 -50 -2 0 -17 7 -32 15 -58 30
-107 10 -107 -43 0 -71 61 -84 117 -26 21 22 41 34 50 31 35 -14 96 -58 96
-71 0 -20 -78 -95 -123 -118 -90 -45 -233 -14 -283 62 -52 79 -44 155 22 229
57 63 113 86 211 86 66 -1 72 1 70 19 -2 16 10 22 78 37 44 10 83 19 87 19 4
0 22 -25 39 -55 17 -30 35 -55 40 -55 5 0 9 24 9 53 0 28 4 57 8 64 10 15 151
38 163 26 4 -4 19 -37 32 -72 l24 -64 12 54 c7 30 14 64 17 76 3 19 12 23 57
26 107 7 127 7 127 -3z m280 -6 c31 -9 69 -25 84 -37 l27 -22 -37 -53 -37 -53
21 -22 22 -21 0 22 c0 30 22 71 52 99 90 84 273 66 361 -37 31 -37 34 -38 50
-23 12 12 39 19 88 21 65 4 76 1 142 -31 40 -20 86 -50 102 -67 l30 -32 -49
-42 c-48 -42 -48 -43 -37 -78 15 -46 -7 -101 -52 -129 -26 -16 -44 -19 -97
-16 -72 4 -130 29 -197 83 l-41 34 -65 -17 c-61 -16 -67 -16 -126 2 -67 20
-147 87 -153 128 -3 20 -5 18 -25 -15 -38 -64 -106 -86 -214 -69 -56 9 -159
53 -159 67 0 3 11 27 26 55 25 50 25 51 8 94 -48 127 95 210 276 159z m-897
-280 c11 -14 17 -27 14 -30 -10 -10 -57 20 -57 38 0 26 22 22 43 -8z m-145
-16 c9 -9 8 -16 -5 -30 -21 -23 -40 -23 -52 0 -18 33 29 58 57 30z"/>
<path d="M2022 808 c-17 -17 -15 -73 3 -88 19 -16 57 -16 97 1 29 12 32 11 47
-11 9 -13 24 -33 33 -44 l17 -21 23 23 c19 19 23 33 23 82 0 33 -2 60 -6 60
-3 0 -26 -14 -53 -30 l-47 -30 -33 35 c-35 37 -80 47 -104 23z m76 -30 c17
-17 15 -26 -7 -38 -25 -13 -51 -3 -51 19 0 32 34 43 58 19z m132 -59 c0 -20
-15 -26 -25 -9 -9 15 3 43 15 35 5 -3 10 -15 10 -26z"/>
<path d="M1414 519 c-17 -5 -46 -25 -65 -44 -19 -19 -37 -35 -41 -35 -3 0 -16
16 -28 35 -15 24 -28 34 -39 31 -9 -3 -42 -10 -73 -16 -57 -11 -58 -12 -64
-51 -9 -52 -20 -57 -34 -14 -6 19 -18 35 -25 35 -12 0 -209 -65 -257 -85 -10
-4 -18 -13 -18 -19 0 -15 97 -237 109 -249 4 -4 52 7 107 26 55 19 125 40 156
47 41 9 62 20 74 37 15 23 17 24 34 8 10 -9 27 -14 37 -11 15 5 235 26 283 28
8 0 38 -2 65 -5 28 -3 84 -9 125 -12 41 -4 115 -15 165 -26 49 -10 100 -19
112 -19 13 0 43 -10 66 -22 26 -13 61 -22 91 -22 42 0 52 4 77 32 20 22 29 43
29 66 0 26 8 41 32 61 l33 28 -51 46 c-50 46 -105 71 -156 71 -14 0 -38 7 -55
15 -16 8 -75 24 -129 34 -175 34 -161 34 -168 -1 -3 -17 -6 -47 -6 -68 0 -40
-23 -71 -41 -53 -7 7 -6 32 1 78 6 37 8 70 5 74 -10 9 -317 9 -351 0z m129
-40 c39 -10 47 -28 22 -49 -11 -9 -22 -9 -49 0 -29 9 -39 8 -61 -6 -20 -13
-25 -24 -23 -48 5 -55 88 -74 88 -20 0 28 25 42 49 27 21 -14 21 -63 0 -84
-25 -25 -84 -34 -129 -20 -82 24 -108 117 -50 171 42 39 87 48 153 29z m162
-74 l0 -80 43 -3 c46 -3 65 -24 41 -46 -10 -9 -35 -11 -84 -7 l-70 6 -3 81
c-4 103 8 136 46 132 27 -3 27 -3 27 -83z m255 47 c66 -14 86 -22 88 -36 6
-31 -11 -36 -66 -22 -33 9 -54 11 -58 4 -9 -14 3 -22 49 -33 33 -8 43 -15 45
-33 4 -23 2 -23 -52 -17 -47 6 -56 5 -56 -8 0 -11 15 -17 51 -22 52 -7 70 -25
51 -48 -9 -11 -26 -10 -91 3 -44 9 -83 18 -86 22 -6 6 14 187 22 201 5 9 2 9
103 -11z m-670 -83 c33 -50 60 -95 60 -99 0 -16 -55 -18 -72 -3 -24 22 -82 9
-102 -22 -10 -16 -26 -25 -41 -25 -31 0 -31 13 -2 135 24 95 23 93 90 104 4 0
34 -40 67 -90z m-272 29 c23 -23 12 -37 -43 -54 -33 -11 -55 -23 -55 -32 0
-11 7 -12 28 -6 87 25 129 -10 48 -41 -26 -10 -46 -24 -46 -32 0 -9 6 -13 14
-10 65 25 98 30 107 16 5 -8 7 -18 6 -23 -4 -11 -157 -67 -170 -63 -9 3 -77
164 -77 182 0 6 37 25 83 42 100 37 90 36 105 21z m1233 -31 c37 -24 45 -60
17 -65 -10 -2 -30 6 -44 17 -28 22 -54 28 -54 12 0 -4 18 -20 40 -35 50 -33
61 -69 31 -99 -36 -37 -127 -21 -173 30 -15 17 -16 22 -5 38 13 17 16 17 53
-9 21 -14 44 -26 51 -26 23 0 14 18 -19 41 -60 41 -73 73 -42 103 24 25 104
21 145 -7z"/>
<path d="M1197 363 c-15 -15 -7 -43 13 -43 21 0 24 8 14 34 -7 17 -16 20 -27
9z"/>
</g>
</svg>
